<svg width="25" height="25" viewBox="0 0 25 25" fill="none" xmlns="http://www.w3.org/2000/svg">
<path d="M18.1808 11.6557C18.2101 14.8333 20.9684 15.8909 20.9987 15.9046C20.9753 15.9789 20.5579 17.4119 19.5453 18.8917C18.6705 20.1712 17.7614 21.4458 16.3304 21.4722C14.9239 21.4986 14.4723 20.6384 12.8644 20.6384C11.2575 20.6384 10.7551 21.4458 9.42376 21.4986C8.04263 21.5514 6.99089 20.1155 6.10825 18.8409C4.30583 16.2321 2.92762 11.4729 4.77794 8.25901C5.69674 6.66381 7.33984 5.65312 9.12271 5.62673C10.4794 5.60132 11.7589 6.53967 12.5888 6.53967C13.4176 6.53967 14.9728 5.41072 16.609 5.57688C17.2932 5.60523 19.2159 5.8535 20.4494 7.65983C20.3507 7.72141 18.1563 8.99894 18.1808 11.6557ZM15.5377 3.85266C16.2708 2.96513 16.7644 1.72963 16.6295 0.5C15.5729 0.54203 14.2944 1.20474 13.5359 2.09129C12.8566 2.87716 12.2613 4.13416 12.4216 5.33936C13.6004 5.43026 14.8046 4.74018 15.5377 3.85266Z" fill="black"/>
</svg>
